<svg height="512" viewBox="0 0 512 512" width="512" xmlns="http://www.w3.org/2000/svg"><g id="filled_outline" data-name="filled outline"><path d="m312 152 16-24h88v24l-48 8z" fill="#878787"/><path d="m24 152h40v41.969h-40z" fill="#878787"/><path d="m24 176h40v17.969h-40z" fill="#787d82"/><path d="m352 304h-48a66.6 66.6 0 0 0 -12.6-57.757l-16.864-21.121h64.616l18.97 78.878z" fill="#747474"/><path d="m361.878 304h-48a66.6 66.6 0 0 0 -12.606-57.757l-16.864-21.121h64.617l18.975 78.878z" fill="#878787"/><path d="m357 312h-72.2a40.035 40.035 0 0 1 -36.553-23.755l-23.554-53-3.915-8.963 14.663-6.4 3.894 8.916 23.533 52.949a24.023 24.023 0 0 0 21.932 14.253h72.2z" fill="#b9b9b9"/><path d="m440 200 2.951 1.967a51.724 51.724 0 0 0 45.049 6.033v24l-40 32-16-32z" fill="#878787"/><path d="m104 152-24 8-16-8v-32h32z" fill="#b9b9b9"/><path d="m440 200v32h-372a12 12 0 0 1 -12-12v-68h368l13.33 40z" fill="#cbcbcb"/><path d="m160 232v-32l-40-16h-64v36a12 12 0 0 0 12 12z" fill="#b2b2b2"/><path d="m351.59 197.47-15.18 5.06-16.85-50.53h16.87z" fill="#a8a8a8"/><path d="m481.135 396.542-41.135-164.542v-24h-288v24h176l56.45 183.462a29.346 29.346 0 0 0 32.874 20.317l42.758-7.126a26.128 26.128 0 0 0 21.053-32.111z" fill="#b9b9b9"/><path d="m480 392-32-128-56-32h-32l45.491 166.8a10 10 0 0 0 11.817 7.131z" fill="#d1763e"/><path d="m408 280h16v16h-16z" fill="#b46636"/><path d="m424 328h16v16h-16z" fill="#b46636"/><g fill="#a8a8a8"><path d="m383.59 197.47-15.18 5.06-16.85-50.53h16.87z"/><path d="m415.59 197.47-15.18 5.06-16.85-50.53h16.87z"/><path d="m440 200v8h-288a8.081 8.081 0 0 1 -3.58-.84l-30.31-15.16h-62.11v-16h64a8.081 8.081 0 0 1 3.58.84l30.31 15.16h283.44z"/></g><path d="m492.678 201.51a8 8 0 0 0 -7.208-1.1 43.437 43.437 0 0 1 -38.082-5.1l-.666-.444-15.132-45.4a8 8 0 0 0 -7.59-5.466v-16a8 8 0 0 0 -8-8h-88a8 8 0 0 0 -6.656 3.562l-13.625 20.438h-197.473l-6.485-25.94a8 8 0 0 0 -7.761-6.06h-32a8 8 0 0 0 -8 8v24h-32a8 8 0 0 0 -8 8v41.97a8 8 0 0 0 8 8h24v18.03a20.023 20.023 0 0 0 20 20h158.8l21.442 48.245a40.035 40.035 0 0 0 36.558 23.755h59.45l32.55 105.811a37.486 37.486 0 0 0 35.725 26.368 37.024 37.024 0 0 0 6.107-.508l42.755-7.129a34.129 34.129 0 0 0 27.513-41.949l-31.893-127.554 35.993-28.792a8 8 0 0 0 3-6.247v-24a8 8 0 0 0 -3.322-6.49zm-444.678-15.54h-16v-25.97h16zm370.234-25.97 10.666 32h-15.133l-10.667-32zm-85.953-24h75.719v8h-81.052zm64.619 56h-15.133l-10.667-32h15.133zm-32 0h-15.133l-10.667-32h15.133zm-292.9-64h17.754l4 16h-21.754zm72 96h-76a4 4 0 0 1 -4-4v-28h54.111l25.889 12.944zm-20.422-47.155a7.994 7.994 0 0 0 -3.578-.845h-56v-16h258.233l10.667 32h-179.011zm36.422 47.155v-16h272v24a7.977 7.977 0 0 0 .239 1.94l3.453 13.813-39.723-22.7a7.992 7.992 0 0 0 -3.969-1.053zm137.4 72h-12.6a24.023 24.023 0 0 1 -21.932-14.253l-18.558-41.747h31.845l8.992 11.241a58.971 58.971 0 0 1 12.253 44.759zm16.132 0a75.1 75.1 0 0 0 -15.888-54.754l-1-1.246h25.446l17.232 56zm157.408 116.831a17.924 17.924 0 0 1 -12.175 7.929l-42.765 7.13a21.407 21.407 0 0 1 -23.9-14.783l-53.269-173.107h15.059l43.883 160.9a17.97 17.97 0 0 0 21.27 12.836l54.812-12.18a17.914 17.914 0 0 1 -2.915 11.275zm-13.585-78.431 12.892 51.569-54.676 12.149a1.993 1.993 0 0 1 -2.362-1.426l-42.735-156.692h19.4l51.191 29.252zm22.645-106.245-27.262 21.81-2.692-10.765-2.046-8.184v-17.216a59.075 59.075 0 0 0 32 4.29z"/><path d="m408 280h16v16h-16z"/><path d="m424 328h16v16h-16z"/></g></svg>