<svg height="480pt" viewBox="0 -88 480 480" width="480pt" xmlns="http://www.w3.org/2000/svg"><path d="m120 23.988281h192v80h-192zm0 0" fill="#fcf05a"/><path d="m120 23.988281h48v80h-48zm0 0" fill="#f9c55d"/><path d="m120 103.988281h-40c-22.089844 0-72-24-72-40s49.910156-40 72-40h40zm0 0" fill="#fcf05a"/><path d="m328 7.988281c8.835938 0 16 7.164063 16 16v80c0 8.835938-7.164062 16-16 16s-16-7.164062-16-16v-80c0-8.835937 7.164062-16 16-16zm0 0" fill="#f9c55d"/><path d="m208 63.988281h-8c-4.417969 0-8-3.582031-8-8s3.582031-8 8-8h8c4.417969 0 8 3.582031 8 8s-3.582031 8-8 8zm0 0" fill="#e97424"/><path d="m280 63.988281h-40c-4.417969 0-8-3.582031-8-8s3.582031-8 8-8h40c4.417969 0 8 3.582031 8 8s-3.582031 8-8 8zm0 0" fill="#e97424"/><path d="m56 63.988281c-3.917969-.007812-7.25-2.851562-7.878906-6.71875-.628906-3.867187 1.636718-7.617187 5.351562-8.863281l24-8c4.195313-1.398438 8.730469.875 10.128906 5.070312 1.394532 4.199219-.875 8.734376-5.074218 10.128907l-24 8c-.816406.261719-1.667969.390625-2.527344.382812zm0 0" fill="#e97424"/><path d="m192 199.988281h192v80h-192zm0 0" fill="#fcf05a"/><path d="m192 199.988281h48v80h-48zm0 0" fill="#f9c55d"/><path d="m192 279.988281h-40c-22.089844 0-72-24-72-40s49.910156-40 72-40h40zm0 0" fill="#fcf05a"/><path d="m400 183.988281c8.835938 0 16 7.164063 16 16v80c0 8.835938-7.164062 16-16 16s-16-7.164062-16-16v-80c0-8.835937 7.164062-16 16-16zm0 0" fill="#f9c55d"/><path d="m280 239.988281h-8c-4.417969 0-8-3.582031-8-8s3.582031-8 8-8h8c4.417969 0 8 3.582031 8 8s-3.582031 8-8 8zm0 0" fill="#e97424"/><path d="m352 239.988281h-40c-4.417969 0-8-3.582031-8-8s3.582031-8 8-8h40c4.417969 0 8 3.582031 8 8s-3.582031 8-8 8zm0 0" fill="#e97424"/><path d="m128 239.988281c-3.917969-.007812-7.25-2.851562-7.878906-6.71875-.628906-3.867187 1.636718-7.617187 5.351562-8.863281l24-8c4.195313-1.398438 8.730469.875 10.128906 5.070312 1.394532 4.199219-.875 8.734376-5.074218 10.128907l-24 8c-.816406.261719-1.667969.390625-2.527344.382812zm0 0" fill="#e97424"/><g fill="#cfdfe8"><path d="m448 39.988281h-72c-4.417969 0-8-3.582031-8-8s3.582031-8 8-8h72c4.417969 0 8 3.582031 8 8s-3.582031 8-8 8zm0 0"/><path d="m472 71.988281h-96c-4.417969 0-8-3.582031-8-8s3.582031-8 8-8h96c4.417969 0 8 3.582031 8 8s-3.582031 8-8 8zm0 0"/><path d="m424 103.988281h-48c-4.417969 0-8-3.582031-8-8s3.582031-8 8-8h48c4.417969 0 8 3.582031 8 8s-3.582031 8-8 8zm0 0"/><path d="m472 103.988281h-16c-4.417969 0-8-3.582031-8-8s3.582031-8 8-8h16c4.417969 0 8 3.582031 8 8s-3.582031 8-8 8zm0 0"/><path d="m472 215.988281h-24c-4.417969 0-8-3.582031-8-8s3.582031-8 8-8h24c4.417969 0 8 3.582031 8 8s-3.582031 8-8 8zm0 0"/><path d="m464 247.988281h-16c-4.417969 0-8-3.582031-8-8s3.582031-8 8-8h16c4.417969 0 8 3.582031 8 8s-3.582031 8-8 8zm0 0"/><path d="m472 279.988281h-24c-4.417969 0-8-3.582031-8-8s3.582031-8 8-8h24c4.417969 0 8 3.582031 8 8s-3.582031 8-8 8zm0 0"/></g><path d="m305.472656 111.988281c3.878906 11.011719 15.132813 17.621094 26.640625 15.644531 11.507813-1.980468 19.910157-11.96875 19.886719-23.644531v-80c.023438-11.675781-8.378906-21.664062-19.886719-23.640625-11.507812-1.980468-22.761719 4.628906-26.640625 15.640625h-225.472656c-16.878906 1.496094-33.246094 6.578125-48 14.914063-14.601562 7.664062-32 19.621094-32 33.085937 0 13.464844 17.398438 25.425781 32 33.089844 14.753906 8.332031 31.121094 13.417969 48 14.910156zm22.527344-96c4.417969 0 8 3.582031 8 8v80c0 4.417969-3.582031 8-8 8s-8-3.582031-8-8v-80c0-4.417969 3.582031-8 8-8zm-24 80h-128v-64h128zm-144 0h-32v-64h32zm-144-32c.398438-8.175781 41.6875-32 64-32h32v64h-32c-22.3125 0-63.601562-23.832031-64-32zm0 0"/><path d="m200 63.988281h8c4.417969 0 8-3.582031 8-8s-3.582031-8-8-8h-8c-4.417969 0-8 3.582031-8 8s3.582031 8 8 8zm0 0"/><path d="m240 63.988281h40c4.417969 0 8-3.582031 8-8s-3.582031-8-8-8h-40c-4.417969 0-8 3.582031-8 8s3.582031 8 8 8zm0 0"/><path d="m87.59375 45.460938c-1.402344-4.191407-5.929688-6.453126-10.121094-5.054688l-24 8c-4.199218 1.394531-6.46875 5.929688-5.074218 10.128906 1.398437 4.195313 5.933593 6.464844 10.128906 5.070313l24-8c2.019531-.667969 3.691406-2.117188 4.640625-4.019531.949219-1.902344 1.101562-4.109376.425781-6.125zm0 0"/><path d="m400 175.988281c-10.132812.042969-19.148438 6.445313-22.527344 16h-225.472656c-16.878906 1.496094-33.246094 6.578125-48 14.914063-14.601562 7.664062-32 19.621094-32 33.085937 0 13.464844 17.398438 25.425781 32 33.089844 14.753906 8.332031 31.121094 13.417969 48 14.910156h225.472656c3.878906 11.011719 15.132813 17.621094 26.640625 15.644531 11.507813-1.980468 19.910157-11.96875 19.886719-23.644531v-80c0-13.253906-10.746094-24-24-24zm-24 32v64h-128v-64zm-288 32c.398438-8.175781 41.6875-32 64-32h32v64h-32c-22.3125 0-63.601562-23.832031-64-32zm112 32v-64h32v64zm208 8c0 4.417969-3.582031 8-8 8s-8-3.582031-8-8v-80c0-4.417969 3.582031-8 8-8s8 3.582031 8 8zm0 0"/><path d="m272 239.988281h8c4.417969 0 8-3.582031 8-8s-3.582031-8-8-8h-8c-4.417969 0-8 3.582031-8 8s3.582031 8 8 8zm0 0"/><path d="m312 239.988281h40c4.417969 0 8-3.582031 8-8s-3.582031-8-8-8h-40c-4.417969 0-8 3.582031-8 8s3.582031 8 8 8zm0 0"/><path d="m149.472656 216.40625-24 8c-4.199218 1.394531-6.46875 5.929688-5.074218 10.128906 1.398437 4.195313 5.933593 6.464844 10.128906 5.070313l24-8c4.199218-1.394531 6.46875-5.929688 5.074218-10.128907-1.398437-4.195312-5.933593-6.46875-10.128906-5.070312zm0 0"/><path d="m448 23.988281h-72c-4.417969 0-8 3.582031-8 8s3.582031 8 8 8h72c4.417969 0 8-3.582031 8-8s-3.582031-8-8-8zm0 0"/><path d="m472 55.988281h-96c-4.417969 0-8 3.582031-8 8s3.582031 8 8 8h96c4.417969 0 8-3.582031 8-8s-3.582031-8-8-8zm0 0"/><path d="m424 87.988281h-48c-4.417969 0-8 3.582031-8 8s3.582031 8 8 8h48c4.417969 0 8-3.582031 8-8s-3.582031-8-8-8zm0 0"/><path d="m472 87.988281h-16c-4.417969 0-8 3.582031-8 8s3.582031 8 8 8h16c4.417969 0 8-3.582031 8-8s-3.582031-8-8-8zm0 0"/><path d="m472 199.988281h-24c-4.417969 0-8 3.582031-8 8s3.582031 8 8 8h24c4.417969 0 8-3.582031 8-8s-3.582031-8-8-8zm0 0"/><path d="m448 247.988281h16c4.417969 0 8-3.582031 8-8s-3.582031-8-8-8h-16c-4.417969 0-8 3.582031-8 8s3.582031 8 8 8zm0 0"/><path d="m472 263.988281h-24c-4.417969 0-8 3.582031-8 8s3.582031 8 8 8h24c4.417969 0 8-3.582031 8-8s-3.582031-8-8-8zm0 0"/></svg>